STARTFONT 2.1
FONT -bited-unicorn-Regular-R-Normal--17-160-75-75-P-65-ISO10646-1
SIZE 16 75 75
FONTBOUNDINGBOX 9 12 0 -3
STARTPROPERTIES 24
FOUNDRY "bited"
FAMILY_NAME "unicorn"
WEIGHT_NAME "Regular"
SLANT "R"
SETWIDTH_NAME "Normal"
ADD_STYLE_NAME ""
PIXEL_SIZE 17
POINT_SIZE 160
RESOLUTION_X 75
RESOLUTION_Y 75
SPACING "P"
AVERAGE_WIDTH 65
CHARSET_REGISTRY "ISO10646"
CHARSET_ENCODING "1"
FONT_ASCENT 13
FONT_DESCENT 4
CAP_HEIGHT 9
X_HEIGHT 5
BITED_DWIDTH 7
BITED_WIDTHS "218 H4sIAAAAAAAACmNgwA0A6XdwgBwAAAA="
BITED_TABLE_WIDTH -16
BITED_TABLE_CELL_SCALE 2
BITED_EDITOR_GRID_SIZE 32
BITED_EDITOR_CELL_SIZE 12
ENDPROPERTIES
CHARS 218
STARTCHAR U+0020
ENCODING 32
SWIDTH 533 0
DWIDTH 5 0
BBX 0 0 0 0
BITMAP
ENDCHAR
STARTCHAR U+0021
ENCODING 33
SWIDTH 320 0
DWIDTH 3 0
BBX 1 9 1 0
BITMAP
80
80
80
80
80
80
00
80
80
ENDCHAR
STARTCHAR U+0022
ENCODING 34
SWIDTH 533 0
DWIDTH 5 0
BBX 3 3 1 6
BITMAP
A0
A0
A0
ENDCHAR
STARTCHAR U+0023
ENCODING 35
SWIDTH 746 0
DWIDTH 7 0
BBX 5 7 1 0
BITMAP
50
50
F8
50
F8
50
50
ENDCHAR
STARTCHAR U+0024
ENCODING 36
SWIDTH 746 0
DWIDTH 7 0
BBX 5 9 1 0
BITMAP
20
70
A8
A0
70
28
A8
70
20
ENDCHAR
STARTCHAR U+0025
ENCODING 37
SWIDTH 853 0
DWIDTH 8 0
BBX 6 8 1 0
BITMAP
40
A4
48
10
20
48
94
08
ENDCHAR
STARTCHAR U+0026
ENCODING 38
SWIDTH 746 0
DWIDTH 7 0
BBX 5 9 1 0
BITMAP
60
80
80
40
A8
90
90
90
68
ENDCHAR
STARTCHAR U+0027
ENCODING 39
SWIDTH 320 0
DWIDTH 3 0
BBX 1 3 1 6
BITMAP
80
80
80
ENDCHAR
STARTCHAR U+0028
ENCODING 40
SWIDTH 533 0
DWIDTH 5 0
BBX 3 11 1 -2
BITMAP
20
40
40
80
80
80
80
80
40
40
20
ENDCHAR
STARTCHAR U+0029
ENCODING 41
SWIDTH 533 0
DWIDTH 5 0
BBX 3 11 1 -2
BITMAP
80
40
40
20
20
20
20
20
40
40
80
ENDCHAR
STARTCHAR U+002A
ENCODING 42
SWIDTH 746 0
DWIDTH 7 0
BBX 5 5 1 4
BITMAP
20
A8
70
A8
20
ENDCHAR
STARTCHAR U+002B
ENCODING 43
SWIDTH 746 0
DWIDTH 7 0
BBX 5 5 1 1
BITMAP
20
20
F8
20
20
ENDCHAR
STARTCHAR U+002C
ENCODING 44
SWIDTH 426 0
DWIDTH 4 0
BBX 2 4 1 -2
BITMAP
C0
C0
40
80
ENDCHAR
STARTCHAR U+002D
ENCODING 45
SWIDTH 533 0
DWIDTH 5 0
BBX 3 1 1 3
BITMAP
E0
ENDCHAR
STARTCHAR U+002E
ENCODING 46
SWIDTH 426 0
DWIDTH 4 0
BBX 2 2 1 0
BITMAP
C0
C0
ENDCHAR
STARTCHAR U+002F
ENCODING 47
SWIDTH 746 0
DWIDTH 7 0
BBX 5 10 1 -1
BITMAP
08
08
10
10
20
20
40
40
80
80
ENDCHAR
STARTCHAR U+0030
ENCODING 48
SWIDTH 746 0
DWIDTH 7 0
BBX 5 9 1 0
BITMAP
70
88
88
98
A8
C8
88
88
70
ENDCHAR
STARTCHAR U+0031
ENCODING 49
SWIDTH 746 0
DWIDTH 7 0
BBX 5 9 1 0
BITMAP
20
60
A0
20
20
20
20
20
F8
ENDCHAR
STARTCHAR U+0032
ENCODING 50
SWIDTH 746 0
DWIDTH 7 0
BBX 5 9 1 0
BITMAP
70
88
08
08
10
20
40
80
F8
ENDCHAR
STARTCHAR U+0033
ENCODING 51
SWIDTH 746 0
DWIDTH 7 0
BBX 5 9 1 0
BITMAP
70
88
08
08
30
08
08
88
70
ENDCHAR
STARTCHAR U+0034
ENCODING 52
SWIDTH 746 0
DWIDTH 7 0
BBX 5 9 1 0
BITMAP
30
50
50
90
90
F8
10
10
10
ENDCHAR
STARTCHAR U+0035
ENCODING 53
SWIDTH 746 0
DWIDTH 7 0
BBX 5 9 1 0
BITMAP
F8
80
80
80
F0
08
08
88
70
ENDCHAR
STARTCHAR U+0036
ENCODING 54
SWIDTH 746 0
DWIDTH 7 0
BBX 5 9 1 0
BITMAP
30
40
80
80
F0
88
88
88
70
ENDCHAR
STARTCHAR U+0037
ENCODING 55
SWIDTH 746 0
DWIDTH 7 0
BBX 5 9 1 0
BITMAP
F8
08
10
10
20
20
40
40
40
ENDCHAR
STARTCHAR U+0038
ENCODING 56
SWIDTH 746 0
DWIDTH 7 0
BBX 5 9 1 0
BITMAP
70
88
88
88
70
88
88
88
70
ENDCHAR
STARTCHAR U+0039
ENCODING 57
SWIDTH 746 0
DWIDTH 7 0
BBX 5 9 1 0
BITMAP
70
88
88
88
78
08
08
10
60
ENDCHAR
STARTCHAR U+003A
ENCODING 58
SWIDTH 426 0
DWIDTH 4 0
BBX 2 6 1 0
BITMAP
C0
C0
00
00
C0
C0
ENDCHAR
STARTCHAR U+003B
ENCODING 59
SWIDTH 426 0
DWIDTH 4 0
BBX 2 8 1 -2
BITMAP
C0
C0
00
00
C0
C0
40
80
ENDCHAR
STARTCHAR U+003C
ENCODING 60
SWIDTH 640 0
DWIDTH 6 0
BBX 4 7 1 0
BITMAP
10
20
40
80
40
20
10
ENDCHAR
STARTCHAR U+003D
ENCODING 61
SWIDTH 746 0
DWIDTH 7 0
BBX 5 4 1 1
BITMAP
F8
00
00
F8
ENDCHAR
STARTCHAR U+003E
ENCODING 62
SWIDTH 640 0
DWIDTH 6 0
BBX 4 7 1 0
BITMAP
80
40
20
10
20
40
80
ENDCHAR
STARTCHAR U+003F
ENCODING 63
SWIDTH 640 0
DWIDTH 6 0
BBX 4 9 1 0
BITMAP
E0
10
10
20
40
40
00
40
40
ENDCHAR
STARTCHAR U+0040
ENCODING 64
SWIDTH 960 0
DWIDTH 9 0
BBX 7 7 1 0
BITMAP
38
44
92
AA
9C
40
38
ENDCHAR
STARTCHAR U+0041
ENCODING 65
SWIDTH 746 0
DWIDTH 7 0
BBX 5 9 1 0
BITMAP
20
20
50
50
88
F8
88
88
88
ENDCHAR
STARTCHAR U+0042
ENCODING 66
SWIDTH 746 0
DWIDTH 7 0
BBX 5 9 1 0
BITMAP
F0
88
88
88
F0
88
88
88
F0
ENDCHAR
STARTCHAR U+0043
ENCODING 67
SWIDTH 746 0
DWIDTH 7 0
BBX 5 9 1 0
BITMAP
70
88
80
80
80
80
80
88
70
ENDCHAR
STARTCHAR U+0044
ENCODING 68
SWIDTH 746 0
DWIDTH 7 0
BBX 5 9 1 0
BITMAP
E0
90
88
88
88
88
88
90
E0
ENDCHAR
STARTCHAR U+0045
ENCODING 69
SWIDTH 746 0
DWIDTH 7 0
BBX 5 9 1 0
BITMAP
F8
80
80
80
F0
80
80
80
F8
ENDCHAR
STARTCHAR U+0046
ENCODING 70
SWIDTH 746 0
DWIDTH 7 0
BBX 5 9 1 0
BITMAP
F8
80
80
80
F0
80
80
80
80
ENDCHAR
STARTCHAR U+0047
ENCODING 71
SWIDTH 746 0
DWIDTH 7 0
BBX 5 9 1 0
BITMAP
70
88
80
80
98
88
88
88
70
ENDCHAR
STARTCHAR U+0048
ENCODING 72
SWIDTH 746 0
DWIDTH 7 0
BBX 5 9 1 0
BITMAP
88
88
88
88
F8
88
88
88
88
ENDCHAR
STARTCHAR U+0049
ENCODING 73
SWIDTH 533 0
DWIDTH 5 0
BBX 3 9 1 0
BITMAP
E0
40
40
40
40
40
40
40
E0
ENDCHAR
STARTCHAR U+004A
ENCODING 74
SWIDTH 746 0
DWIDTH 7 0
BBX 5 9 1 0
BITMAP
08
08
08
08
08
08
08
88
70
ENDCHAR
STARTCHAR U+004B
ENCODING 75
SWIDTH 746 0
DWIDTH 7 0
BBX 5 9 1 0
BITMAP
88
88
90
A0
C0
A0
90
88
88
ENDCHAR
STARTCHAR U+004C
ENCODING 76
SWIDTH 746 0
DWIDTH 7 0
BBX 5 9 1 0
BITMAP
80
80
80
80
80
80
80
80
F8
ENDCHAR
STARTCHAR U+004D
ENCODING 77
SWIDTH 960 0
DWIDTH 9 0
BBX 7 9 1 0
BITMAP
82
82
C6
C6
AA
AA
92
92
82
ENDCHAR
STARTCHAR U+004E
ENCODING 78
SWIDTH 746 0
DWIDTH 7 0
BBX 5 9 1 0
BITMAP
88
88
C8
C8
A8
A8
98
98
88
ENDCHAR
STARTCHAR U+004F
ENCODING 79
SWIDTH 746 0
DWIDTH 7 0
BBX 5 9 1 0
BITMAP
70
88
88
88
88
88
88
88
70
ENDCHAR
STARTCHAR U+0050
ENCODING 80
SWIDTH 746 0
DWIDTH 7 0
BBX 5 9 1 0
BITMAP
F0
88
88
88
F0
80
80
80
80
ENDCHAR
STARTCHAR U+0051
ENCODING 81
SWIDTH 746 0
DWIDTH 7 0
BBX 5 9 1 0
BITMAP
70
88
88
88
88
88
A8
90
68
ENDCHAR
STARTCHAR U+0052
ENCODING 82
SWIDTH 746 0
DWIDTH 7 0
BBX 5 9 1 0
BITMAP
F0
88
88
88
F0
A0
90
88
88
ENDCHAR
STARTCHAR U+0053
ENCODING 83
SWIDTH 746 0
DWIDTH 7 0
BBX 5 9 1 0
BITMAP
70
88
80
80
70
08
08
88
70
ENDCHAR
STARTCHAR U+0054
ENCODING 84
SWIDTH 746 0
DWIDTH 7 0
BBX 5 9 1 0
BITMAP
F8
20
20
20
20
20
20
20
20
ENDCHAR
STARTCHAR U+0055
ENCODING 85
SWIDTH 746 0
DWIDTH 7 0
BBX 5 9 1 0
BITMAP
88
88
88
88
88
88
88
88
70
ENDCHAR
STARTCHAR U+0056
ENCODING 86
SWIDTH 746 0
DWIDTH 7 0
BBX 5 9 1 0
BITMAP
88
88
88
88
88
50
50
20
20
ENDCHAR
STARTCHAR U+0057
ENCODING 87
SWIDTH 960 0
DWIDTH 9 0
BBX 7 9 1 0
BITMAP
82
82
82
92
92
AA
AA
44
44
ENDCHAR
STARTCHAR U+0058
ENCODING 88
SWIDTH 746 0
DWIDTH 7 0
BBX 5 9 1 0
BITMAP
88
88
50
50
20
50
50
88
88
ENDCHAR
STARTCHAR U+0059
ENCODING 89
SWIDTH 746 0
DWIDTH 7 0
BBX 5 9 1 0
BITMAP
88
88
88
98
68
08
08
88
70
ENDCHAR
STARTCHAR U+005A
ENCODING 90
SWIDTH 746 0
DWIDTH 7 0
BBX 5 9 1 0
BITMAP
F8
10
10
20
20
20
40
40
F8
ENDCHAR
STARTCHAR U+005B
ENCODING 91
SWIDTH 533 0
DWIDTH 5 0
BBX 3 11 1 -2
BITMAP
E0
80
80
80
80
80
80
80
80
80
E0
ENDCHAR
STARTCHAR U+005C
ENCODING 92
SWIDTH 746 0
DWIDTH 7 0
BBX 5 10 1 -1
BITMAP
80
80
40
40
20
20
10
10
08
08
ENDCHAR
STARTCHAR U+005D
ENCODING 93
SWIDTH 533 0
DWIDTH 5 0
BBX 3 11 1 -2
BITMAP
E0
20
20
20
20
20
20
20
20
20
E0
ENDCHAR
STARTCHAR U+005E
ENCODING 94
SWIDTH 746 0
DWIDTH 7 0
BBX 5 3 1 6
BITMAP
20
50
88
ENDCHAR
STARTCHAR U+005F
ENCODING 95
SWIDTH 746 0
DWIDTH 7 0
BBX 5 1 1 -1
BITMAP
F8
ENDCHAR
STARTCHAR U+0060
ENCODING 96
SWIDTH 533 0
DWIDTH 5 0
BBX 3 3 1 6
BITMAP
80
40
20
ENDCHAR
STARTCHAR U+0061
ENCODING 97
SWIDTH 746 0
DWIDTH 7 0
BBX 5 5 1 0
BITMAP
78
88
88
98
68
ENDCHAR
STARTCHAR U+0062
ENCODING 98
SWIDTH 746 0
DWIDTH 7 0
BBX 5 9 1 0
BITMAP
80
80
80
80
B0
C8
88
88
F0
ENDCHAR
STARTCHAR U+0063
ENCODING 99
SWIDTH 746 0
DWIDTH 7 0
BBX 5 5 1 0
BITMAP
70
88
80
80
78
ENDCHAR
STARTCHAR U+0064
ENCODING 100
SWIDTH 746 0
DWIDTH 7 0
BBX 5 9 1 0
BITMAP
08
08
08
08
78
88
88
98
68
ENDCHAR
STARTCHAR U+0065
ENCODING 101
SWIDTH 746 0
DWIDTH 7 0
BBX 5 5 1 0
BITMAP
70
88
F8
80
78
ENDCHAR
STARTCHAR U+0066
ENCODING 102
SWIDTH 640 0
DWIDTH 6 0
BBX 4 9 1 0
BITMAP
30
40
40
40
F0
40
40
40
40
ENDCHAR
STARTCHAR U+0067
ENCODING 103
SWIDTH 746 0
DWIDTH 7 0
BBX 5 8 1 -3
BITMAP
78
88
88
98
68
08
08
70
ENDCHAR
STARTCHAR U+0068
ENCODING 104
SWIDTH 746 0
DWIDTH 7 0
BBX 5 9 1 0
BITMAP
80
80
80
80
B0
C8
88
88
88
ENDCHAR
STARTCHAR U+0069
ENCODING 105
SWIDTH 533 0
DWIDTH 5 0
BBX 3 7 1 0
BITMAP
40
00
C0
40
40
40
60
ENDCHAR
STARTCHAR U+006A
ENCODING 106
SWIDTH 533 0
DWIDTH 5 0
BBX 2 10 1 -3
BITMAP
40
00
C0
40
40
40
40
40
40
80
ENDCHAR
STARTCHAR U+006B
ENCODING 107
SWIDTH 640 0
DWIDTH 6 0
BBX 4 9 1 0
BITMAP
80
80
80
80
90
A0
C0
A0
90
ENDCHAR
STARTCHAR U+006C
ENCODING 108
SWIDTH 533 0
DWIDTH 5 0
BBX 3 9 1 0
BITMAP
C0
40
40
40
40
40
40
40
60
ENDCHAR
STARTCHAR U+006D
ENCODING 109
SWIDTH 960 0
DWIDTH 9 0
BBX 7 5 1 0
BITMAP
A4
DA
92
92
92
ENDCHAR
STARTCHAR U+006E
ENCODING 110
SWIDTH 746 0
DWIDTH 7 0
BBX 5 5 1 0
BITMAP
B0
C8
88
88
88
ENDCHAR
STARTCHAR U+006F
ENCODING 111
SWIDTH 746 0
DWIDTH 7 0
BBX 5 5 1 0
BITMAP
70
88
88
88
70
ENDCHAR
STARTCHAR U+0070
ENCODING 112
SWIDTH 746 0
DWIDTH 7 0
BBX 5 8 1 -3
BITMAP
B0
C8
88
88
F0
80
80
80
ENDCHAR
STARTCHAR U+0071
ENCODING 113
SWIDTH 746 0
DWIDTH 7 0
BBX 5 8 1 -3
BITMAP
78
88
88
98
68
08
08
08
ENDCHAR
STARTCHAR U+0072
ENCODING 114
SWIDTH 640 0
DWIDTH 6 0
BBX 4 5 1 0
BITMAP
B0
C0
80
80
80
ENDCHAR
STARTCHAR U+0073
ENCODING 115
SWIDTH 746 0
DWIDTH 7 0
BBX 5 5 1 0
BITMAP
78
80
70
08
F0
ENDCHAR
STARTCHAR U+0074
ENCODING 116
SWIDTH 640 0
DWIDTH 6 0
BBX 4 7 1 0
BITMAP
40
40
F0
40
40
40
30
ENDCHAR
STARTCHAR U+0075
ENCODING 117
SWIDTH 746 0
DWIDTH 7 0
BBX 5 5 1 0
BITMAP
88
88
88
98
68
ENDCHAR
STARTCHAR U+0076
ENCODING 118
SWIDTH 746 0
DWIDTH 7 0
BBX 5 5 1 0
BITMAP
88
88
50
50
20
ENDCHAR
STARTCHAR U+0077
ENCODING 119
SWIDTH 960 0
DWIDTH 9 0
BBX 7 5 1 0
BITMAP
92
92
92
B4
48
ENDCHAR
STARTCHAR U+0078
ENCODING 120
SWIDTH 746 0
DWIDTH 7 0
BBX 5 5 1 0
BITMAP
88
50
20
50
88
ENDCHAR
STARTCHAR U+0079
ENCODING 121
SWIDTH 746 0
DWIDTH 7 0
BBX 5 8 1 -3
BITMAP
88
88
88
98
68
08
08
70
ENDCHAR
STARTCHAR U+007A
ENCODING 122
SWIDTH 746 0
DWIDTH 7 0
BBX 5 5 1 0
BITMAP
F8
10
20
40
F8
ENDCHAR
STARTCHAR U+007B
ENCODING 123
SWIDTH 533 0
DWIDTH 5 0
BBX 3 11 1 -2
BITMAP
20
40
40
40
40
80
40
40
40
40
20
ENDCHAR
STARTCHAR U+007C
ENCODING 124
SWIDTH 320 0
DWIDTH 3 0
BBX 1 11 1 -2
BITMAP
80
80
80
80
80
80
80
80
80
80
80
ENDCHAR
STARTCHAR U+007D
ENCODING 125
SWIDTH 533 0
DWIDTH 5 0
BBX 3 11 1 -2
BITMAP
80
40
40
40
40
20
40
40
40
40
80
ENDCHAR
STARTCHAR U+007E
ENCODING 126
SWIDTH 746 0
DWIDTH 7 0
BBX 5 3 1 2
BITMAP
48
A8
90
ENDCHAR
STARTCHAR U+00A0
ENCODING 160
SWIDTH 533 0
DWIDTH 5 0
BBX 0 0 0 0
BITMAP
ENDCHAR
STARTCHAR U+00A1
ENCODING 161
SWIDTH 320 0
DWIDTH 3 0
BBX 1 9 1 -1
BITMAP
80
80
00
80
80
80
80
80
80
ENDCHAR
STARTCHAR U+00A2
ENCODING 162
SWIDTH 746 0
DWIDTH 7 0
BBX 5 9 1 0
BITMAP
20
20
70
A8
A0
A0
78
20
20
ENDCHAR
STARTCHAR U+00A3
ENCODING 163
SWIDTH 746 0
DWIDTH 7 0
BBX 5 9 1 0
BITMAP
30
48
40
40
F0
40
40
40
B8
ENDCHAR
STARTCHAR U+00A4
ENCODING 164
SWIDTH 746 0
DWIDTH 7 0
BBX 5 5 1 1
BITMAP
88
70
50
70
88
ENDCHAR
STARTCHAR U+00A5
ENCODING 165
SWIDTH 746 0
DWIDTH 7 0
BBX 5 9 1 0
BITMAP
88
88
50
20
F8
20
F8
20
20
ENDCHAR
STARTCHAR U+00A6
ENCODING 166
SWIDTH 320 0
DWIDTH 3 0
BBX 1 11 1 -2
BITMAP
80
80
80
80
00
00
00
80
80
80
80
ENDCHAR
STARTCHAR U+00A7
ENCODING 167
SWIDTH 746 0
DWIDTH 7 0
BBX 5 9 1 0
BITMAP
70
88
80
70
88
70
08
88
70
ENDCHAR
STARTCHAR U+00A8
ENCODING 168
SWIDTH 533 0
DWIDTH 5 0
BBX 3 1 1 8
BITMAP
A0
ENDCHAR
STARTCHAR U+00A9
ENCODING 169
SWIDTH 1066 0
DWIDTH 10 0
BBX 8 8 1 0
BITMAP
3C
42
99
A1
A5
99
42
3C
ENDCHAR
STARTCHAR U+00AA
ENCODING 170
SWIDTH 640 0
DWIDTH 6 0
BBX 4 6 1 3
BITMAP
70
90
B0
50
00
F0
ENDCHAR
STARTCHAR U+00AB
ENCODING 171
SWIDTH 746 0
DWIDTH 7 0
BBX 5 5 1 1
BITMAP
28
50
A0
50
28
ENDCHAR
STARTCHAR U+00AC
ENCODING 172
SWIDTH 746 0
DWIDTH 7 0
BBX 5 3 1 2
BITMAP
F8
08
08
ENDCHAR
STARTCHAR U+00AD
ENCODING 173
SWIDTH 533 0
DWIDTH 5 0
BBX 3 1 1 3
BITMAP
E0
ENDCHAR
STARTCHAR U+00AE
ENCODING 174
SWIDTH 960 0
DWIDTH 9 0
BBX 8 8 1 0
BITMAP
3C
42
B9
A5
B9
A5
42
3C
ENDCHAR
STARTCHAR U+00AF
ENCODING 175
SWIDTH 746 0
DWIDTH 7 0
BBX 5 1 1 8
BITMAP
F8
ENDCHAR
STARTCHAR U+00B0
ENCODING 176
SWIDTH 533 0
DWIDTH 5 0
BBX 3 3 1 6
BITMAP
40
A0
40
ENDCHAR
STARTCHAR U+00B1
ENCODING 177
SWIDTH 746 0
DWIDTH 7 0
BBX 5 6 1 1
BITMAP
20
20
F8
20
20
F8
ENDCHAR
STARTCHAR U+00B2
ENCODING 178
SWIDTH 533 0
DWIDTH 5 0
BBX 3 5 1 5
BITMAP
C0
20
40
80
E0
ENDCHAR
STARTCHAR U+00B3
ENCODING 179
SWIDTH 533 0
DWIDTH 5 0
BBX 3 5 1 5
BITMAP
C0
20
40
20
C0
ENDCHAR
STARTCHAR U+00B4
ENCODING 180
SWIDTH 533 0
DWIDTH 5 0
BBX 3 3 1 6
BITMAP
20
40
80
ENDCHAR
STARTCHAR U+00B5
ENCODING 181
SWIDTH 746 0
DWIDTH 7 0
BBX 5 8 1 -3
BITMAP
88
88
88
D8
A8
80
80
80
ENDCHAR
STARTCHAR U+00B6
ENCODING 182
SWIDTH 746 0
DWIDTH 7 0
BBX 5 11 1 -2
BITMAP
78
E8
E8
E8
68
28
28
28
28
28
28
ENDCHAR
STARTCHAR U+00B7
ENCODING 183
SWIDTH 426 0
DWIDTH 4 0
BBX 2 2 1 3
BITMAP
C0
C0
ENDCHAR
STARTCHAR U+00B8
ENCODING 184
SWIDTH 533 0
DWIDTH 5 0
BBX 3 3 1 -3
BITMAP
40
20
C0
ENDCHAR
STARTCHAR U+00B9
ENCODING 185
SWIDTH 533 0
DWIDTH 5 0
BBX 3 5 1 5
BITMAP
40
C0
40
40
E0
ENDCHAR
STARTCHAR U+00BA
ENCODING 186
SWIDTH 640 0
DWIDTH 6 0
BBX 4 6 1 3
BITMAP
60
90
90
60
00
F0
ENDCHAR
STARTCHAR U+00BB
ENCODING 187
SWIDTH 746 0
DWIDTH 7 0
BBX 5 5 1 1
BITMAP
A0
50
28
50
A0
ENDCHAR
STARTCHAR U+00BC
ENCODING 188
SWIDTH 853 0
DWIDTH 8 0
BBX 6 11 1 -1
BITMAP
40
C0
40
44
E8
10
24
4C
94
1C
04
ENDCHAR
STARTCHAR U+00BD
ENCODING 189
SWIDTH 853 0
DWIDTH 8 0
BBX 6 11 1 -1
BITMAP
40
C0
40
44
E8
10
28
44
88
10
1C
ENDCHAR
STARTCHAR U+00BE
ENCODING 190
SWIDTH 853 0
DWIDTH 8 0
BBX 6 11 1 -1
BITMAP
C0
20
40
24
C8
10
24
4C
94
1C
04
ENDCHAR
STARTCHAR U+00BF
ENCODING 191
SWIDTH 640 0
DWIDTH 6 0
BBX 4 9 1 -1
BITMAP
20
20
00
20
20
40
80
80
70
ENDCHAR
STARTCHAR U+00C0
ENCODING 192
SWIDTH 746 0
DWIDTH 7 0
BBX 5 12 1 0
BITMAP
40
20
00
20
20
50
50
88
F8
88
88
88
ENDCHAR
STARTCHAR U+00C1
ENCODING 193
SWIDTH 746 0
DWIDTH 7 0
BBX 5 12 1 0
BITMAP
10
20
00
20
20
50
50
88
F8
88
88
88
ENDCHAR
STARTCHAR U+00C2
ENCODING 194
SWIDTH 746 0
DWIDTH 7 0
BBX 5 12 1 0
BITMAP
20
50
00
20
20
50
50
88
F8
88
88
88
ENDCHAR
STARTCHAR U+00C3
ENCODING 195
SWIDTH 746 0
DWIDTH 7 0
BBX 5 12 1 0
BITMAP
68
58
00
20
20
50
50
88
F8
88
88
88
ENDCHAR
STARTCHAR U+00C4
ENCODING 196
SWIDTH 746 0
DWIDTH 7 0
BBX 5 11 1 0
BITMAP
50
00
20
20
50
50
88
F8
88
88
88
ENDCHAR
STARTCHAR U+00C5
ENCODING 197
SWIDTH 746 0
DWIDTH 7 0
BBX 5 11 1 0
BITMAP
20
50
20
20
50
50
88
F8
88
88
88
ENDCHAR
STARTCHAR U+00C6
ENCODING 198
SWIDTH 960 0
DWIDTH 9 0
BBX 7 9 1 0
BITMAP
3E
50
90
90
FC
90
90
90
9E
ENDCHAR
STARTCHAR U+00C7
ENCODING 199
SWIDTH 746 0
DWIDTH 7 0
BBX 5 12 1 -3
BITMAP
70
88
80
80
80
80
80
88
70
20
10
60
ENDCHAR
STARTCHAR U+00C8
ENCODING 200
SWIDTH 746 0
DWIDTH 7 0
BBX 5 12 1 0
BITMAP
40
20
00
F8
80
80
80
F0
80
80
80
F8
ENDCHAR
STARTCHAR U+00C9
ENCODING 201
SWIDTH 746 0
DWIDTH 7 0
BBX 5 12 1 0
BITMAP
10
20
00
F8
80
80
80
F0
80
80
80
F8
ENDCHAR
STARTCHAR U+00CA
ENCODING 202
SWIDTH 746 0
DWIDTH 7 0
BBX 5 12 1 0
BITMAP
20
50
00
F8
80
80
80
F0
80
80
80
F8
ENDCHAR
STARTCHAR U+00CB
ENCODING 203
SWIDTH 746 0
DWIDTH 7 0
BBX 5 11 1 0
BITMAP
50
00
F8
80
80
80
F0
80
80
80
F8
ENDCHAR
STARTCHAR U+00CC
ENCODING 204
SWIDTH 533 0
DWIDTH 5 0
BBX 3 12 1 0
BITMAP
80
40
00
E0
40
40
40
40
40
40
40
E0
ENDCHAR
STARTCHAR U+00CD
ENCODING 205
SWIDTH 533 0
DWIDTH 5 0
BBX 3 12 1 0
BITMAP
20
40
00
E0
40
40
40
40
40
40
40
E0
ENDCHAR
STARTCHAR U+00CE
ENCODING 206
SWIDTH 533 0
DWIDTH 5 0
BBX 3 12 1 0
BITMAP
40
A0
00
E0
40
40
40
40
40
40
40
E0
ENDCHAR
STARTCHAR U+00CF
ENCODING 207
SWIDTH 533 0
DWIDTH 5 0
BBX 3 11 1 0
BITMAP
A0
00
E0
40
40
40
40
40
40
40
E0
ENDCHAR
STARTCHAR U+00D0
ENCODING 208
SWIDTH 746 0
DWIDTH 7 0
BBX 6 9 0 0
BITMAP
70
48
44
44
F4
44
44
48
70
ENDCHAR
STARTCHAR U+00D1
ENCODING 209
SWIDTH 746 0
DWIDTH 7 0
BBX 5 12 1 0
BITMAP
68
58
00
88
88
C8
C8
A8
A8
98
98
88
ENDCHAR
STARTCHAR U+00D2
ENCODING 210
SWIDTH 746 0
DWIDTH 7 0
BBX 5 12 1 0
BITMAP
40
20
00
70
88
88
88
88
88
88
88
70
ENDCHAR
STARTCHAR U+00D3
ENCODING 211
SWIDTH 746 0
DWIDTH 7 0
BBX 5 12 1 0
BITMAP
10
20
00
70
88
88
88
88
88
88
88
70
ENDCHAR
STARTCHAR U+00D4
ENCODING 212
SWIDTH 746 0
DWIDTH 7 0
BBX 5 12 1 0
BITMAP
20
50
00
70
88
88
88
88
88
88
88
70
ENDCHAR
STARTCHAR U+00D5
ENCODING 213
SWIDTH 746 0
DWIDTH 7 0
BBX 5 12 1 0
BITMAP
68
58
00
70
88
88
88
88
88
88
88
70
ENDCHAR
STARTCHAR U+00D6
ENCODING 214
SWIDTH 746 0
DWIDTH 7 0
BBX 5 11 1 0
BITMAP
50
00
70
88
88
88
88
88
88
88
70
ENDCHAR
STARTCHAR U+00D7
ENCODING 215
SWIDTH 746 0
DWIDTH 7 0
BBX 5 5 1 1
BITMAP
88
50
20
50
88
ENDCHAR
STARTCHAR U+00D8
ENCODING 216
SWIDTH 746 0
DWIDTH 7 0
BBX 5 11 1 -1
BITMAP
08
70
98
98
A8
A8
A8
C8
C8
70
80
ENDCHAR
STARTCHAR U+00D9
ENCODING 217
SWIDTH 746 0
DWIDTH 7 0
BBX 5 12 1 0
BITMAP
40
20
00
88
88
88
88
88
88
88
88
70
ENDCHAR
STARTCHAR U+00DA
ENCODING 218
SWIDTH 746 0
DWIDTH 7 0
BBX 5 12 1 0
BITMAP
10
20
00
88
88
88
88
88
88
88
88
70
ENDCHAR
STARTCHAR U+00DB
ENCODING 219
SWIDTH 746 0
DWIDTH 7 0
BBX 5 12 1 0
BITMAP
20
50
00
88
88
88
88
88
88
88
88
70
ENDCHAR
STARTCHAR U+00DC
ENCODING 220
SWIDTH 746 0
DWIDTH 7 0
BBX 5 11 1 0
BITMAP
50
00
88
88
88
88
88
88
88
88
70
ENDCHAR
STARTCHAR U+00DD
ENCODING 221
SWIDTH 746 0
DWIDTH 7 0
BBX 5 12 1 0
BITMAP
10
20
00
88
88
88
88
78
08
08
88
70
ENDCHAR
STARTCHAR U+00DE
ENCODING 222
SWIDTH 746 0
DWIDTH 7 0
BBX 5 9 1 0
BITMAP
80
80
F0
88
88
88
F0
80
80
ENDCHAR
STARTCHAR U+00DF
ENCODING 223
SWIDTH 746 0
DWIDTH 7 0
BBX 5 9 1 0
BITMAP
60
90
90
A0
A0
90
88
88
B0
ENDCHAR
STARTCHAR U+00E0
ENCODING 224
SWIDTH 746 0
DWIDTH 7 0
BBX 5 8 1 0
BITMAP
40
20
00
78
88
88
98
68
ENDCHAR
STARTCHAR U+00E1
ENCODING 225
SWIDTH 746 0
DWIDTH 7 0
BBX 5 8 1 0
BITMAP
10
20
00
78
88
88
98
68
ENDCHAR
STARTCHAR U+00E2
ENCODING 226
SWIDTH 746 0
DWIDTH 7 0
BBX 5 8 1 0
BITMAP
20
50
00
78
88
88
98
68
ENDCHAR
STARTCHAR U+00E3
ENCODING 227
SWIDTH 746 0
DWIDTH 7 0
BBX 5 8 1 0
BITMAP
68
58
00
78
88
88
98
68
ENDCHAR
STARTCHAR U+00E4
ENCODING 228
SWIDTH 746 0
DWIDTH 7 0
BBX 5 7 1 0
BITMAP
50
00
78
88
88
98
68
ENDCHAR
STARTCHAR U+00E5
ENCODING 229
SWIDTH 746 0
DWIDTH 7 0
BBX 5 9 1 0
BITMAP
20
50
20
00
78
88
88
98
68
ENDCHAR
STARTCHAR U+00E6
ENCODING 230
SWIDTH 960 0
DWIDTH 9 0
BBX 7 5 1 0
BITMAP
6C
12
7E
90
6E
ENDCHAR
STARTCHAR U+00E7
ENCODING 231
SWIDTH 746 0
DWIDTH 7 0
BBX 5 8 1 -3
BITMAP
70
88
80
80
78
20
10
60
ENDCHAR
STARTCHAR U+00E8
ENCODING 232
SWIDTH 746 0
DWIDTH 7 0
BBX 5 8 1 0
BITMAP
40
20
00
70
88
F8
80
78
ENDCHAR
STARTCHAR U+00E9
ENCODING 233
SWIDTH 746 0
DWIDTH 7 0
BBX 5 8 1 0
BITMAP
10
20
00
70
88
F8
80
78
ENDCHAR
STARTCHAR U+00EA
ENCODING 234
SWIDTH 746 0
DWIDTH 7 0
BBX 5 8 1 0
BITMAP
20
50
00
70
88
F8
80
78
ENDCHAR
STARTCHAR U+00EB
ENCODING 235
SWIDTH 746 0
DWIDTH 7 0
BBX 5 7 1 0
BITMAP
50
00
70
88
F8
80
78
ENDCHAR
STARTCHAR U+00EC
ENCODING 236
SWIDTH 533 0
DWIDTH 5 0
BBX 3 8 1 0
BITMAP
80
40
00
C0
40
40
40
60
ENDCHAR
STARTCHAR U+00ED
ENCODING 237
SWIDTH 533 0
DWIDTH 5 0
BBX 3 8 1 0
BITMAP
20
40
00
C0
40
40
40
60
ENDCHAR
STARTCHAR U+00EE
ENCODING 238
SWIDTH 533 0
DWIDTH 5 0
BBX 3 8 1 0
BITMAP
40
A0
00
C0
40
40
40
60
ENDCHAR
STARTCHAR U+00EF
ENCODING 239
SWIDTH 533 0
DWIDTH 5 0
BBX 3 7 1 0
BITMAP
A0
00
C0
40
40
40
60
ENDCHAR
STARTCHAR U+00F0
ENCODING 240
SWIDTH 746 0
DWIDTH 7 0
BBX 5 9 1 0
BITMAP
28
10
28
08
78
88
88
88
70
ENDCHAR
STARTCHAR U+00F1
ENCODING 241
SWIDTH 746 0
DWIDTH 7 0
BBX 5 8 1 0
BITMAP
68
58
00
B0
C8
88
88
88
ENDCHAR
STARTCHAR U+00F2
ENCODING 242
SWIDTH 746 0
DWIDTH 7 0
BBX 5 8 1 0
BITMAP
40
20
00
70
88
88
88
70
ENDCHAR
STARTCHAR U+00F3
ENCODING 243
SWIDTH 746 0
DWIDTH 7 0
BBX 5 8 1 0
BITMAP
10
20
00
70
88
88
88
70
ENDCHAR
STARTCHAR U+00F4
ENCODING 244
SWIDTH 746 0
DWIDTH 7 0
BBX 5 8 1 0
BITMAP
20
50
00
70
88
88
88
70
ENDCHAR
STARTCHAR U+00F5
ENCODING 245
SWIDTH 746 0
DWIDTH 7 0
BBX 5 8 1 0
BITMAP
68
58
00
70
88
88
88
70
ENDCHAR
STARTCHAR U+00F6
ENCODING 246
SWIDTH 746 0
DWIDTH 7 0
BBX 5 7 1 0
BITMAP
50
00
70
88
88
88
70
ENDCHAR
STARTCHAR U+00F7
ENCODING 247
SWIDTH 746 0
DWIDTH 7 0
BBX 5 5 1 1
BITMAP
20
00
F8
00
20
ENDCHAR
STARTCHAR U+00F8
ENCODING 248
SWIDTH 746 0
DWIDTH 7 0
BBX 5 7 1 -1
BITMAP
08
70
98
A8
C8
70
80
ENDCHAR
STARTCHAR U+00F9
ENCODING 249
SWIDTH 746 0
DWIDTH 7 0
BBX 5 8 1 0
BITMAP
40
20
00
88
88
88
98
68
ENDCHAR
STARTCHAR U+00FA
ENCODING 250
SWIDTH 746 0
DWIDTH 7 0
BBX 5 8 1 0
BITMAP
10
20
00
88
88
88
98
68
ENDCHAR
STARTCHAR U+00FB
ENCODING 251
SWIDTH 746 0
DWIDTH 7 0
BBX 5 8 1 0
BITMAP
20
50
00
88
88
88
98
68
ENDCHAR
STARTCHAR U+00FC
ENCODING 252
SWIDTH 746 0
DWIDTH 7 0
BBX 5 7 1 0
BITMAP
50
00
88
88
88
98
68
ENDCHAR
STARTCHAR U+00FD
ENCODING 253
SWIDTH 746 0
DWIDTH 7 0
BBX 5 11 1 -3
BITMAP
10
20
00
88
88
88
98
68
08
08
70
ENDCHAR
STARTCHAR U+00FE
ENCODING 254
SWIDTH 746 0
DWIDTH 7 0
BBX 5 12 1 -3
BITMAP
80
80
80
80
B0
C8
88
88
F0
80
80
80
ENDCHAR
STARTCHAR U+00FF
ENCODING 255
SWIDTH 746 0
DWIDTH 7 0
BBX 5 10 1 -3
BITMAP
50
00
88
88
88
98
68
08
08
70
ENDCHAR
STARTCHAR U+2013
ENCODING 8211
SWIDTH 746 0
DWIDTH 7 0
BBX 5 1 1 3
BITMAP
F8
ENDCHAR
STARTCHAR U+2014
ENCODING 8212
SWIDTH 960 0
DWIDTH 9 0
BBX 7 1 1 3
BITMAP
FE
ENDCHAR
STARTCHAR U+2015
ENCODING 8213
SWIDTH 960 0
DWIDTH 9 0
BBX 9 1 0 3
BITMAP
FF80
ENDCHAR
STARTCHAR U+2017
ENCODING 8215
SWIDTH 746 0
DWIDTH 7 0
BBX 5 3 1 -3
BITMAP
F8
00
F8
ENDCHAR
STARTCHAR U+2018
ENCODING 8216
SWIDTH 426 0
DWIDTH 4 0
BBX 2 3 1 6
BITMAP
40
80
C0
ENDCHAR
STARTCHAR U+2019
ENCODING 8217
SWIDTH 426 0
DWIDTH 4 0
BBX 2 3 1 6
BITMAP
C0
40
80
ENDCHAR
STARTCHAR U+201A
ENCODING 8218
SWIDTH 426 0
DWIDTH 4 0
BBX 2 3 1 -1
BITMAP
C0
40
80
ENDCHAR
STARTCHAR U+201B
ENCODING 8219
SWIDTH 426 0
DWIDTH 4 0
BBX 2 3 1 6
BITMAP
C0
80
40
ENDCHAR
STARTCHAR U+201C
ENCODING 8220
SWIDTH 746 0
DWIDTH 7 0
BBX 5 3 1 6
BITMAP
48
90
D8
ENDCHAR
STARTCHAR U+201D
ENCODING 8221
SWIDTH 746 0
DWIDTH 7 0
BBX 5 3 1 6
BITMAP
D8
48
90
ENDCHAR
STARTCHAR U+201E
ENCODING 8222
SWIDTH 746 0
DWIDTH 7 0
BBX 5 3 1 -1
BITMAP
D8
48
90
ENDCHAR
STARTCHAR U+2020
ENCODING 8224
SWIDTH 746 0
DWIDTH 7 0
BBX 5 10 1 -2
BITMAP
20
20
20
F8
20
20
20
20
20
20
ENDCHAR
STARTCHAR U+2021
ENCODING 8225
SWIDTH 746 0
DWIDTH 7 0
BBX 5 10 1 -2
BITMAP
20
20
20
F8
20
20
F8
20
20
20
ENDCHAR
STARTCHAR U+2022
ENCODING 8226
SWIDTH 640 0
DWIDTH 6 0
BBX 4 4 1 1
BITMAP
60
F0
F0
60
ENDCHAR
STARTCHAR U+2026
ENCODING 8230
SWIDTH 746 0
DWIDTH 7 0
BBX 5 2 1 0
BITMAP
A8
A8
ENDCHAR
STARTCHAR U+2032
ENCODING 8242
SWIDTH 533 0
DWIDTH 5 0
BBX 3 3 1 6
BITMAP
60
40
80
ENDCHAR
STARTCHAR U+2033
ENCODING 8243
SWIDTH 853 0
DWIDTH 8 0
BBX 6 3 1 6
BITMAP
6C
48
90
ENDCHAR
STARTCHAR U+2039
ENCODING 8249
SWIDTH 533 0
DWIDTH 5 0
BBX 3 5 1 1
BITMAP
20
40
80
40
20
ENDCHAR
STARTCHAR U+203A
ENCODING 8250
SWIDTH 533 0
DWIDTH 5 0
BBX 3 5 1 1
BITMAP
80
40
20
40
80
ENDCHAR
STARTCHAR U+203C
ENCODING 8252
SWIDTH 533 0
DWIDTH 5 0
BBX 3 9 1 0
BITMAP
A0
A0
A0
A0
A0
A0
00
A0
A0
ENDCHAR
STARTCHAR U+203E
ENCODING 8254
SWIDTH 746 0
DWIDTH 7 0
BBX 5 1 1 8
BITMAP
F8
ENDCHAR
STARTCHAR U+20AC
ENCODING 8364
SWIDTH 853 0
DWIDTH 8 0
BBX 6 9 1 0
BITMAP
1C
20
40
F8
40
F8
40
20
1C
ENDCHAR
STARTCHAR U+2116
ENCODING 8470
SWIDTH 1066 0
DWIDTH 10 0
BBX 8 9 1 0
BITMAP
92
95
D2
D0
B7
B0
90
90
90
ENDCHAR
STARTCHAR U+2122
ENCODING 8482
SWIDTH 1173 0
DWIDTH 11 0
BBX 9 4 1 5
BITMAP
E880
4D80
4A80
4880
ENDCHAR
STARTCHAR U+2212
ENCODING 8722
SWIDTH 746 0
DWIDTH 7 0
BBX 5 1 1 3
BITMAP
F8
ENDCHAR
STARTCHAR U+FB01
ENCODING 64257
SWIDTH 853 0
DWIDTH 8 0
BBX 6 9 1 0
BITMAP
30
40
44
40
FC
44
44
44
44
ENDCHAR
STARTCHAR U+FB02
ENCODING 64258
SWIDTH 853 0
DWIDTH 8 0
BBX 6 9 1 0
BITMAP
3C
44
44
44
F4
44
44
44
44
ENDCHAR
ENDFONT
